<?xml version="1.0" encoding="UTF-8" standalone="no"?><!-- Generator: Gravit.io --><svg xmlns="http://www.w3.org/2000/svg" xmlns:xlink="http://www.w3.org/1999/xlink" style="isolation:isolate" viewBox="0 376 2516 1313.011" width="2516pt" height="1313.011pt"><g><g><path d=" M 703.458 1392.821 C 669.347 1392.821 648.098 1418.172 648.098 1462.069 C 648.098 1502.424 666.738 1533.46 702.899 1533.46 C 737.57 1533.46 760.31 1505.5 760.31 1461.044 C 760.31 1413.978 734.96 1392.821 703.458 1392.821 Z " fill="rgb(0,0,0)"/><path d=" M 1617.75 1510.16 C 1617.75 1525.165 1625.02 1537.095 1645.151 1537.095 C 1668.917 1537.095 1694.268 1520.039 1695.852 1481.268 C 1685.041 1479.684 1673.111 1478.192 1662.207 1478.192 C 1638.441 1478.099 1617.75 1484.81 1617.75 1510.16 Z " fill="rgb(0,0,0)"/><path d=" M 8 1156 L 8 1689.011 L 1872 1689.011 L 1872 1156 L 8 1156 Z  M 550.331 1579.501 L 452.564 1579.501 L 452.564 1448.182 C 452.564 1407.826 439.143 1392.355 412.768 1392.355 C 380.707 1392.355 367.752 1415.096 367.752 1447.716 L 367.752 1528.8 L 398.788 1528.8 L 398.788 1579.501 L 301.114 1579.501 L 301.114 1448.182 C 301.114 1407.826 287.693 1392.355 261.318 1392.355 C 229.257 1392.355 216.302 1415.096 216.302 1447.716 L 216.302 1528.8 L 260.758 1528.8 L 260.758 1579.501 L 118.628 1579.501 L 118.628 1528.8 L 149.664 1528.8 L 149.664 1396.922 L 118.628 1396.922 L 118.628 1346.221 L 216.302 1346.221 L 216.302 1381.358 C 230.282 1356.566 254.607 1341.561 287.134 1341.561 C 320.779 1341.561 351.722 1357.592 363.185 1391.703 C 376.14 1360.667 402.516 1341.561 439.236 1341.561 C 481.083 1341.561 519.388 1366.912 519.388 1422.179 L 519.388 1528.8 L 550.424 1528.8 L 550.424 1579.501 L 550.331 1579.501 Z  M 700.849 1584.627 C 628.992 1584.627 579.316 1540.73 579.316 1466.263 C 579.316 1398.04 620.697 1341.654 704.484 1341.654 C 788.27 1341.654 829.092 1397.947 829.092 1463.094 C 829.092 1537.561 775.316 1584.627 700.849 1584.627 Z  M 1076.911 1579.501 L 873.176 1579.501 L 866.465 1544.364 L 994.708 1397.015 L 921.826 1397.015 L 911.481 1433.177 L 863.39 1427.958 L 871.684 1346.221 L 1076.445 1346.221 L 1081.664 1381.358 L 952.302 1528.8 L 1027.794 1528.8 L 1038.699 1492.638 L 1091.45 1497.764 L 1076.911 1579.501 Z  M 1210 1579.501 L 1140.194 1579.501 L 1140.194 1495.714 L 1210 1495.714 L 1210 1579.501 Z  M 1210 1430.008 L 1140.194 1430.008 L 1140.194 1346.221 L 1210 1346.221 L 1210 1430.008 Z  M 1253.618 1579.501 L 1354.46 1223.756 L 1420.166 1223.756 L 1319.324 1579.501 L 1253.618 1579.501 Z  M 1389.131 1579.501 L 1489.88 1223.756 L 1555.586 1223.756 L 1454.744 1579.501 L 1389.131 1579.501 Z  M 1747.019 1584.627 C 1715.983 1584.627 1698.928 1566.546 1695.852 1538.12 C 1682.431 1561.886 1658.665 1584.627 1620.919 1584.627 C 1587.274 1584.627 1549.062 1566.546 1549.062 1517.896 C 1549.062 1460.484 1604.423 1447.064 1657.64 1447.064 C 1670.595 1447.064 1684.016 1447.623 1695.945 1449.114 L 1695.945 1441.378 C 1695.945 1417.612 1695.386 1389.186 1657.64 1389.186 C 1643.66 1389.186 1632.849 1390.212 1621.944 1395.897 L 1614.395 1422.179 L 1561.178 1416.494 L 1570.312 1362.811 C 1611.133 1346.221 1631.824 1341.654 1670.129 1341.654 C 1720.27 1341.654 1762.676 1367.471 1762.676 1420.781 L 1762.676 1522.09 C 1762.676 1535.51 1767.896 1540.17 1778.707 1540.17 C 1781.782 1540.17 1784.951 1539.611 1788.493 1538.586 L 1789.052 1573.722 C 1776.47 1580.526 1761.465 1584.627 1747.019 1584.627 Z " fill="rgb(0,0,0)"/></g></g><text transform="matrix(1,0,0,1,12,1078)" style="font-family:'Zilla Slab';font-weight:400;font-size:1000px;font-style:normal;fill:#000000;stroke:none;">Voice</text></svg>